<?xml version="1.0" standalone="no"?>
<!DOCTYPE svg PUBLIC "-//W3C//DTD SVG 20010904//EN"
 "http://www.w3.org/TR/2001/REC-SVG-20010904/DTD/svg10.dtd">
<svg version="1.0" xmlns="http://www.w3.org/2000/svg"
 width="1536.000000pt" height="1536.000000pt" viewBox="0 0 1536.000000 1536.000000"
 preserveAspectRatio="xMidYMid meet">
<metadata>
Created by potrace 1.11, written by Peter Selinger 2001-2013
</metadata>
<g transform="translate(0.000000,1536.000000) scale(0.100000,-0.100000)"
fill="#000000" stroke="none">
<path d="M1020 7680 l0 -6260 630 0 630 0 0 490 0 490 -355 0 -355 0 0 5280 0
5280 355 0 355 0 0 490 0 490 -630 0 -630 0 0 -6260z"/>
<path d="M13040 13450 l0 -490 365 0 365 0 0 -5280 0 -5280 -365 0 -365 0 0
-490 0 -490 650 0 650 0 0 6260 0 6260 -650 0 -650 0 0 -490z"/>
<path d="M9958 12670 c-423 -45 -803 -236 -1143 -575 -187 -186 -395 -468
-545 -737 l-65 -116 -65 -7 c-232 -22 -392 -53 -567 -111 -432 -143 -826 -397
-1204 -774 -259 -258 -453 -507 -644 -826 -373 -620 -602 -1311 -670 -2019
-18 -187 -21 -597 -5 -765 95 -1033 563 -1819 1282 -2155 84 -39 108 -54 108
-70 0 -32 -65 -280 -105 -400 -48 -143 -140 -334 -207 -432 -66 -97 -186 -217
-261 -262 -138 -81 -306 -122 -432 -104 -39 5 -91 19 -117 30 l-46 21 94 96
c115 119 159 199 175 322 23 177 -33 290 -171 348 -60 24 -188 39 -286 32
-331 -23 -524 -177 -621 -493 -23 -77 -26 -106 -27 -228 -1 -133 0 -143 26
-198 15 -32 41 -76 58 -97 60 -76 185 -141 340 -176 105 -25 451 -30 582 -10
633 100 1149 526 1609 1333 l63 109 150 12 c492 40 955 233 1426 598 152 117
479 444 613 613 120 151 271 371 372 541 97 163 253 484 325 667 288 727 397
1529 305 2235 -93 708 -383 1312 -815 1695 -156 139 -389 283 -563 348 -35 13
-46 22 -43 34 3 9 21 85 40 169 87 375 200 610 375 774 126 118 282 188 455
204 59 5 87 2 171 -21 135 -37 134 -36 85 -70 -58 -40 -160 -153 -192 -212
-53 -96 -74 -262 -44 -346 31 -86 120 -153 238 -177 76 -15 260 -15 323 1 131
32 263 116 383 244 125 134 177 270 170 445 -3 85 -8 104 -40 170 -45 95 -90
147 -179 206 -84 56 -184 96 -293 119 -97 20 -301 27 -418 15z m-1532 -1441
c157 -16 394 -68 440 -97 9 -5 3 -52 -22 -172 -19 -90 -68 -347 -109 -570
-152 -827 -244 -1258 -541 -2520 -162 -690 -325 -1372 -363 -1515 -152 -572
-310 -1044 -490 -1463 -94 -219 -219 -472 -237 -479 -24 -9 -256 15 -364 37
-77 16 -277 75 -288 85 -1 1 25 136 58 301 33 164 96 488 140 721 44 232 103
534 131 670 50 245 623 2692 721 3078 144 570 328 1121 513 1540 61 139 171
362 187 383 13 15 80 15 224 1z"/>
</g>
</svg>
